<svg xmlns="http://www.w3.org/2000/svg" xmlns:xlink="http://www.w3.org/1999/xlink" version="1.1" x="0px" y="0px" viewBox="0 0 100 100" enable-background="new 0 0 100 100" xml:space="preserve" width="100px" height="100px"><path fill-rule="evenodd" clip-rule="evenodd" d="M50,74.423c-18.854,0-35.411-9.729-45-24.423  c9.589-14.692,26.146-24.423,45-24.423S85.411,35.308,95,50C85.411,64.693,68.854,74.423,50,74.423z M50.611,32.183  c-7.134,0-12.918,5.784-12.918,12.919c0,7.134,5.784,12.918,12.918,12.918c7.135,0,12.919-5.784,12.919-12.918  C63.529,37.967,57.745,32.183,50.611,32.183z M67.414,35.332c1.675,2.874,2.65,6.204,2.65,9.77c0,10.743-8.709,19.453-19.453,19.453  c-10.743,0-19.452-8.71-19.452-19.453c0-3.818,1.116-7.368,3.016-10.373C25.469,37.752,18.085,43.15,13.053,50  C20.925,60.719,34.52,67.816,50,67.816c15.48,0,29.075-7.097,36.947-17.816C82.227,43.573,75.422,38.444,67.414,35.332z"/></svg>